<svg xmlns="http://www.w3.org/2000/svg" xmlns:xlink="http://www.w3.org/1999/xlink" width="40" height="24" viewBox="0 0 40 24">
  <defs>
    <radialGradient id="radial-gradient" cx="0.5" cy="0.5" r="0.501" gradientUnits="objectBoundingBox">
      <stop offset="0" stop-color="#fff"/>
      <stop offset="1" stop-color="#ffa10a"/>
    </radialGradient>
  </defs>
  <g id="discover" transform="translate(-8091.6 4525)">
    <rect id="矩形_315" data-name="矩形 315" width="40" height="24" transform="translate(8091.6 -4525)" fill="none"/>
    <path id="路径_710" data-name="路径 710" d="M196.365,135a2.886,2.886,0,1,1-2.9,2.816A2.882,2.882,0,0,1,196.365,135Z" transform="translate(7916 -4651)" fill-rule="evenodd" fill="url(#radial-gradient)"/>
    <path id="路径_711" data-name="路径 711" d="M178.6,137.851c0-.782,0-1.564,0-2.345,0-.343.058-.4.406-.4a6.879,6.879,0,0,1,2.3.208,2.689,2.689,0,0,1,1.133,4.4,2.656,2.656,0,0,1-2.033.891c-.45,0-.9,0-1.351,0-.424,0-.451-.026-.453-.438,0-.772,0-1.542,0-2.314Zm1.206-.016c0,.438,0,.875,0,1.313,0,.375.02.392.387.388.053,0,.1,0,.158,0a1.454,1.454,0,0,0,1.409-.912,1.7,1.7,0,0,0-.268-1.894,1.871,1.871,0,0,0-1.388-.541c-.225-.021-.3.059-.3.276.008.458,0,.917,0,1.374Z" transform="translate(7916 -4651)" fill="#fff" fill-rule="evenodd"/>
    <path id="路径_712" data-name="路径 712" d="M209.334,138.6c-.081.05-.049.127-.042.2a9.867,9.867,0,0,1-.024,1.528c-.012.177-.094.27-.274.27h-.031c-.839.061-.88.033-.892-.88-.014-1.229,0-2.458,0-3.687,0-.2,0-.4.005-.594a.306.306,0,0,1,.354-.339,10.17,10.17,0,0,1,1.908.1,1.533,1.533,0,0,1,1.266,1.035,1.691,1.691,0,0,1-.379,1.746,1.16,1.16,0,0,1-.341.222c-.4.2-.36.141-.1.491.369.505.752,1,1.129,1.5a1.282,1.282,0,0,1,.124.18c.062.119.031.217-.111.221-.356.008-.712.011-1.067-.011-.169-.012-.249-.176-.336-.3l-1.044-1.56c-.033-.049-.053-.117-.136-.111Zm-.023-1.75h0c0,.156,0,.311,0,.468-.007.2.093.287.29.261a2.37,2.37,0,0,0,.277-.052.671.671,0,0,0,.565-.746c-.022-.374-.231-.573-.652-.625s-.478,0-.48.413v.281Z" transform="translate(7916 -4651)" fill="#fff" fill-rule="evenodd"/>
    <path id="路径_713" data-name="路径 713" d="M204.412,137.842c0-.75,0-1.5,0-2.251,0-.429.067-.492.491-.492q1.1,0,2.2,0c.382,0,.444.064.452.43.015.638.01.643-.631.643-.336,0-.671,0-1.006,0-.212,0-.293.091-.3.3-.031.743-.037.743.714.743.252,0,.5,0,.755,0,.328.006.388.066.4.38.026.655,0,.684-.667.685-.3,0-.608,0-.913,0-.194,0-.292.079-.287.28.005.219.008.437,0,.656s.088.323.316.318c.4-.007.8-.005,1.2,0,.351,0,.416.072.424.426a.553.553,0,0,1-.632.636c-.683,0-1.363,0-2.045,0-.415,0-.465-.053-.467-.474,0-.762,0-1.522,0-2.283Z" transform="translate(7916 -4651)" fill="#fff" fill-rule="evenodd"/>
    <path id="路径_714" data-name="路径 714" d="M199.466,135.1h.157c.415,0,.467.038.623.429q.463,1.162.923,2.327c.046.116.089.233.141.348.035.08.038.213.155.2s.116-.135.15-.219c.376-.928.755-1.855,1.121-2.788a.408.408,0,0,1,.449-.3c.167.009.335,0,.5,0,.382.008.437.083.292.428q-.7,1.672-1.411,3.344c-.215.51-.436,1.016-.641,1.529a.468.468,0,0,1-.493.341.476.476,0,0,1-.486-.352q-.979-2.388-1.975-4.77c-.182-.435-.135-.516.333-.52h.159Z" transform="translate(7916 -4651)" fill="#fff" fill-rule="evenodd"/>
    <path id="路径_715" data-name="路径 715" d="M186.852,140.727a2.058,2.058,0,0,1-1.764-.848c-.131-.166-.139-.293.032-.423.016-.012.029-.03.045-.043.16-.132.265-.364.47-.4.24-.039.307.245.463.371a1,1,0,0,0,1.165.105.585.585,0,0,0-.022-1.013,3.246,3.246,0,0,0-.569-.259,5.817,5.817,0,0,1-.661-.292,1.316,1.316,0,0,1-.8-1.33,1.481,1.481,0,0,1,.872-1.346,2.174,2.174,0,0,1,2.283.25c.2.134.225.286.053.464-.043.044-.075.1-.114.148-.287.358-.285.353-.667.107a.853.853,0,0,0-.866-.082.461.461,0,0,0-.3.4.4.4,0,0,0,.23.408,2.846,2.846,0,0,0,.306.157c.232.1.469.18.7.282a1.557,1.557,0,0,1,1.035,1.924,1.8,1.8,0,0,1-1.765,1.408h-.126Z" transform="translate(7916 -4651)" fill="#fff" fill-rule="evenodd"/>
    <path id="路径_716" data-name="路径 716" d="M188.981,137.9a2.878,2.878,0,0,1,2.594-2.885,2.944,2.944,0,0,1,1.407.222.369.369,0,0,1,.276.344c.005.271.016.543,0,.812-.016.249-.129.295-.324.124a1.482,1.482,0,0,0-1.033-.38,1.585,1.585,0,0,0-1.612,1.144,1.727,1.727,0,0,0,1.432,2.338,1.524,1.524,0,0,0,1.143-.34c.09-.071.181-.166.305-.1.108.059.094.179.1.281,0,.176,0,.354,0,.532-.006.367-.061.451-.416.567a2.893,2.893,0,0,1-3.8-1.95,3.064,3.064,0,0,1-.071-.714Z" transform="translate(7916 -4651)" fill="#fff" fill-rule="evenodd"/>
    <path id="路径_717" data-name="路径 717" d="M184.708,137.874c0,.782,0,1.563,0,2.345,0,.338-.041.374-.383.381-.178,0-.357-.005-.535,0-.228.007-.326-.105-.324-.322,0-.063,0-.125,0-.188v-4.44c0-.5.049-.549.56-.552.67,0,.684.01.684.681v2.095Z" transform="translate(7916 -4651)" fill="#fff" fill-rule="evenodd"/>
  </g>
</svg>
