<svg width="72" height="73" viewBox="0 0 72 73" fill="none" xmlns="http://www.w3.org/2000/svg">
<path d="M55.7838 6.45839H12.7402C9.71459 6.45839 7.26188 8.9111 7.26188 11.9367V55.7629C7.26188 58.7885 9.71459 61.2412 12.7402 61.2412H50.3055C53.3311 61.2412 55.7838 58.7885 55.7838 55.7629V6.45839Z" fill="url(#paint0_linear_1934_155726)" stroke="url(#paint1_linear_1934_155726)" stroke-width="1.56522"/>
<path fill-rule="evenodd" clip-rule="evenodd" d="M43.3132 24.8246C48.0305 31.5616 46.3932 40.8471 39.6562 45.5644C37.1591 47.3129 34.3105 48.1883 31.4755 48.2545L32.6725 49.6132L30.9536 51.1277L27.9042 47.6667L25.7519 45.2239L28.9596 45.7808C32.1276 46.3308 35.5014 45.6768 38.3422 43.6877C44.0427 39.6962 45.4281 31.8392 41.4365 26.1387L43.3132 24.8246ZM18.9164 41.9074C14.1991 35.1704 15.8364 25.8849 22.5734 21.1676C25.1008 19.3979 27.9881 18.5226 30.8571 18.4754L29.6135 17.0265L31.3518 15.5343L34.4026 19.0883L36.4965 21.5276L33.3318 20.9621C30.146 20.3927 26.7466 21.0422 23.8874 23.0443C18.1869 27.0358 16.8015 34.8928 20.7931 40.5933L18.9164 41.9074Z" fill="white"/>
<path d="M43.3132 24.8246L43.9388 24.3866L43.5008 23.761L42.8752 24.199L43.3132 24.8246ZM31.4755 48.2545L31.4576 47.4911L29.8188 47.5294L30.9025 48.7594L31.4755 48.2545ZM32.6725 49.6132L33.1774 50.1862L33.7504 49.6813L33.2455 49.1083L32.6725 49.6132ZM30.9536 51.1277L30.3806 51.6325L30.8854 52.2055L31.4584 51.7007L30.9536 51.1277ZM27.9042 47.6667L27.3312 48.1715L27.9042 47.6667ZM25.7519 45.2239L25.8825 44.4715L23.7441 44.1002L25.1789 45.7287L25.7519 45.2239ZM28.9596 45.7808L29.0902 45.0284L28.9596 45.7808ZM41.4365 26.1387L40.9985 25.5131L40.373 25.9511L40.811 26.5767L41.4365 26.1387ZM18.9164 41.9074L18.2908 42.3454L18.7289 42.971L19.3544 42.5329L18.9164 41.9074ZM30.8571 18.4754L30.8697 19.2389L32.496 19.2122L31.4366 17.978L30.8571 18.4754ZM29.6135 17.0265L29.116 16.4471L28.5366 16.9445L29.034 17.5239L29.6135 17.0265ZM31.3518 15.5343L31.9313 15.0369L31.4339 14.4575L30.8544 14.9549L31.3518 15.5343ZM34.4026 19.0883L33.8231 19.5857L34.4026 19.0883ZM36.4965 21.5276L36.3621 22.2794L38.4718 22.6565L37.0759 21.0302L36.4965 21.5276ZM33.3318 20.9621L33.1975 21.7138L33.3318 20.9621ZM20.7931 40.5933L21.2311 41.2189L21.8567 40.7808L21.4186 40.1553L20.7931 40.5933ZM40.0943 46.19C47.1767 41.2308 48.898 31.469 43.9388 24.3866L42.6877 25.2626C47.163 31.6541 45.6097 40.4635 39.2182 44.9388L40.0943 46.19ZM31.4933 49.018C34.4742 48.9483 37.4699 48.0275 40.0943 46.19L39.2182 44.9388C36.8483 46.5982 34.1469 47.4282 31.4576 47.4911L31.4933 49.018ZM33.2455 49.1083L32.0485 47.7497L30.9025 48.7594L32.0995 50.118L33.2455 49.1083ZM31.4584 51.7007L33.1774 50.1862L32.1677 49.0402L30.4487 50.5547L31.4584 51.7007ZM27.3312 48.1715L30.3806 51.6325L31.5265 50.6229L28.4772 47.1618L27.3312 48.1715ZM25.1789 45.7287L27.3312 48.1715L28.4772 47.1618L26.3249 44.719L25.1789 45.7287ZM29.0902 45.0284L25.8825 44.4715L25.6213 45.9763L28.829 46.5332L29.0902 45.0284ZM37.9041 43.0622C35.2354 44.9309 32.0674 45.5453 29.0902 45.0284L28.829 46.5332C32.1878 47.1164 35.7675 46.4228 38.7802 44.3133L37.9041 43.0622ZM40.811 26.5767C44.5606 31.9317 43.2592 39.3125 37.9041 43.0622L38.7802 44.3133C44.8262 40.0798 46.2956 31.7467 42.0621 25.7006L40.811 26.5767ZM42.8752 24.199L40.9985 25.5131L41.8746 26.7642L43.7512 25.4502L42.8752 24.199ZM22.1354 20.542C15.0529 25.5012 13.3316 35.2629 18.2908 42.3454L19.542 41.4694C15.0666 35.0779 16.6199 26.2685 23.0114 21.7931L22.1354 20.542ZM30.8446 17.7118C27.828 17.7615 24.7916 18.6821 22.1354 20.542L23.0114 21.7931C25.41 20.1136 28.1482 19.2838 30.8697 19.2389L30.8446 17.7118ZM29.034 17.5239L30.2777 18.9728L31.4366 17.978L30.1929 16.5291L29.034 17.5239ZM30.8544 14.9549L29.116 16.4471L30.1109 17.606L31.8492 16.1138L30.8544 14.9549ZM34.982 18.5909L31.9313 15.0369L30.7724 16.0317L33.8231 19.5857L34.982 18.5909ZM37.0759 21.0302L34.982 18.5909L33.8231 19.5857L35.917 22.0251L37.0759 21.0302ZM33.1975 21.7138L36.3621 22.2794L36.6308 20.7759L33.4662 20.2103L33.1975 21.7138ZM24.3255 23.6698C27.0116 21.789 30.2034 21.1787 33.1975 21.7138L33.4662 20.2103C30.0885 19.6066 26.4817 20.2955 23.4494 22.4187L24.3255 23.6698ZM21.4186 40.1553C17.669 34.8003 18.9704 27.4195 24.3255 23.6698L23.4494 22.4187C17.4034 26.6522 15.9341 34.9853 20.1675 41.0313L21.4186 40.1553ZM19.3544 42.5329L21.2311 41.2189L20.3551 39.9678L18.4784 41.2818L19.3544 42.5329Z" fill="white"/>
<g filter="url(#filter0_b_1934_155726)">
<rect width="36" height="36" rx="18" transform="matrix(1 0 0 -1 33 68.7188)" fill="#17E5A1" fill-opacity="0.449415"/>
<rect x="0.514286" y="-0.514286" width="34.9714" height="34.9714" rx="17.4857" transform="matrix(1 0 0 -1 33 67.6902)" stroke="url(#paint2_linear_1934_155726)" stroke-width="1.02857"/>
</g>
<path d="M60.049 53.707L49.4609 53.707L49.4609 43.1934" stroke="white" stroke-width="3.5"/>
<defs>
<filter id="filter0_b_1934_155726" x="24.6122" y="24.3309" width="52.7757" height="52.7757" filterUnits="userSpaceOnUse" color-interpolation-filters="sRGB">
<feFlood flood-opacity="0" result="BackgroundImageFix"/>
<feGaussianBlur in="BackgroundImage" stdDeviation="4.19392"/>
<feComposite in2="SourceAlpha" operator="in" result="effect1_backgroundBlur_1934_155726"/>
<feBlend mode="normal" in="SourceGraphic" in2="effect1_backgroundBlur_1934_155726" result="shape"/>
</filter>
<linearGradient id="paint0_linear_1934_155726" x1="31.5228" y1="-22.4982" x2="87.4823" y2="27.2435" gradientUnits="userSpaceOnUse">
<stop offset="0.000983392" stop-color="#3399FF"/>
<stop offset="1" stop-color="#2354E6"/>
</linearGradient>
<linearGradient id="paint1_linear_1934_155726" x1="31.5228" y1="-22.4982" x2="87.4823" y2="27.2435" gradientUnits="userSpaceOnUse">
<stop stop-color="#4BA3FF"/>
<stop offset="1" stop-color="#1C4BD9"/>
</linearGradient>
<linearGradient id="paint2_linear_1934_155726" x1="15.4309" y1="-12.8153" x2="-16.4399" y2="20.0646" gradientUnits="userSpaceOnUse">
<stop stop-color="#85ECCD" stop-opacity="0.602"/>
<stop offset="1" stop-color="#53E4B9" stop-opacity="0.498552"/>
</linearGradient>
</defs>
</svg>
