<?xml version="1.0" encoding="UTF-8"?>
<svg width="128px" height="128px" viewBox="0 0 128 128" version="1.1" xmlns="http://www.w3.org/2000/svg" xmlns:xlink="http://www.w3.org/1999/xlink">
    <title>编组 6</title>
    <defs>
        <polygon id="path-1" points="0 0 42 0 42 48 0 48"></polygon>
    </defs>
    <g id="页面-1" stroke="none" stroke-width="1" fill="none" fill-rule="evenodd">
        <g id="icon切图" transform="translate(-707.000000, -124.000000)">
            <g id="编组-6" transform="translate(707.000000, 124.000000)">
                <g id="编组" transform="translate(43.000000, 40.000000)">
                    <g>
                        <mask id="mask-2" fill="white">
                            <use xlink:href="#path-1"></use>
                        </mask>
                        <g id="Clip-2"></g>
                        <path d="M21.0006951,48.0000255 C19.7719994,48.0000255 18.5436898,47.6635239 17.4483549,46.9872092 L8.18801812,41.2933021 C3.06096493,38.1366576 -2.57453272e-05,32.6853831 -2.57453272e-05,26.7144545 L-2.57453272e-05,9.70660553 C-2.57453272e-05,6.59530337 2.23080686,3.86011367 5.30441275,3.20137556 L19.5803254,0.151591282 C20.5206735,-0.0505389183 21.475439,-0.0505389183 22.4177179,0.151591282 L36.6946604,3.20137556 C39.7687812,3.86011367 42,6.59530337 42,9.70660553 L42,26.7144545 C42,32.6858926 38.9395242,38.1366576 33.8119561,41.291519 C33.8119561,41.2938116 33.811055,41.2938116 33.811055,41.2938116 L24.5507183,46.9893745 C23.4562844,47.6635239 22.2282323,48.0000255 21.0006951,48.0000255" id="Fill-1" fill="#3A3A3A" mask="url(#mask-2)"></path>
                    </g>
                    <path d="M21.0007538,3 C20.8017475,3 20.6038376,3.02114178 20.4064759,3.06424905 L5.20921706,6.35138436 C3.92910742,6.62842408 3,7.78202406 3,9.09501111 L3,27.4272702 C3,32.3456176 5.49004626,36.8333041 9.66095597,39.4342925 L19.5204043,45.571999 C20.4322426,46.1433763 21.5650163,46.1411797 22.4786363,45.5743329 L32.3382217,39.4342925 C36.5094055,36.8333041 39,32.3456176 39,27.4272702 L39,9.09501111 C39,7.78202406 38.0697961,6.62842408 36.7898235,6.35138436 L21.5924276,3.06424905 C21.3979441,3.02141635 21.199486,3 21.0007538,3" id="Fill-3" fill="#D42020"></path>
                    <path d="M19.9923,24 L20.0077,24 L19.9923,24 Z" id="Fill-5" fill="#3A3A3A"></path>
                    <path d="M21,28 L21,28 C19.35,28 18,26.9370832 18,25.6379627 L18,15.3620373 C18,14.0629168 19.35,13 21,13 C22.65,13 24,14.0629168 24,15.3620373 L24,25.6379627 C24,26.9370832 22.65,28 21,28" id="Fill-7" fill="#FFFFFF"></path>
                    <path d="M21,36 L21,36 C19.35,36 18,34.65 18,33 C18,31.35 19.35,30 21,30 C22.65,30 24,31.35 24,33 C24,34.65 22.65,36 21,36" id="Fill-9" fill="#FFFFFF"></path>
                </g>
                <g id="高危险">
                    <rect id="矩形" x="0" y="0" width="128" height="128"></rect>
                    <g id="编组-2" transform="translate(6.600000, 6.800000)" stroke-dasharray="1.6,4.800000000000001" stroke-width="5.6">
                        <path d="M114.4,5.68434189e-13 C82.8093123,5.68434189e-13 57.2,25.6093123 57.2,57.2" id="椭圆形" stroke="#D11A1A" transform="translate(85.800000, 28.600000) rotate(90.000000) translate(-85.800000, -28.600000) "></path>
                        <path d="M114.4,57.2 C82.8093123,57.2 57.2,82.8093123 57.2,114.4" id="椭圆形" stroke="#888B93" opacity="0.100000001" transform="translate(85.800000, 85.800000) scale(1, -1) rotate(90.000000) translate(-85.800000, -85.800000) "></path>
                        <path d="M85.8,85.8 C85.8,54.2093123 60.1906877,28.6 28.6,28.6 C-2.99068769,28.6 -28.6,54.2093123 -28.6,85.8" id="椭圆形" stroke="#888B93" opacity="0.100000001" transform="translate(28.600000, 57.200000) scale(-1, 1) rotate(90.000000) translate(-28.600000, -57.200000) "></path>
                    </g>
                </g>
            </g>
        </g>
    </g>
</svg>