<svg id="banner" xmlns="http://www.w3.org/2000/svg" xmlns:xlink="http://www.w3.org/1999/xlink" width="1440" height="120" viewBox="0 0 1440 120">
  <defs>
    <clipPath id="clip-path">
      <rect id="矩形_303" data-name="矩形 303" width="1440" height="120"/>
    </clipPath>
    <linearGradient id="linear-gradient" x1="0.757" y1="0.18" x2="0.293" y2="0.883" gradientUnits="objectBoundingBox">
      <stop offset="0" stop-color="#fadf64" stop-opacity="0"/>
      <stop offset="1" stop-color="#fcd000" stop-opacity="0.678"/>
    </linearGradient>
    <linearGradient id="linear-gradient-2" x1="0.954" y1="-3.133" x2="0.023" y2="-2.53" gradientUnits="objectBoundingBox">
      <stop offset="0" stop-color="#c76e2a"/>
      <stop offset="0.229" stop-color="#cc7c2f"/>
      <stop offset="0.625" stop-color="#cf7c2d"/>
      <stop offset="1" stop-color="#e78d35"/>
    </linearGradient>
    <linearGradient id="linear-gradient-3" x1="-59.72" y1="2.513" x2="-60.966" y2="3.4" gradientUnits="objectBoundingBox">
      <stop offset="0" stop-color="#fdf1b7"/>
      <stop offset="0.333" stop-color="#f9e88c"/>
      <stop offset="0.646" stop-color="#f3e16c"/>
      <stop offset="1" stop-color="#c76f29"/>
    </linearGradient>
    <linearGradient id="linear-gradient-4" x1="0.073" y1="-2.894" x2="0.927" y2="-3.683" gradientUnits="objectBoundingBox">
      <stop offset="0" stop-color="#b6732f"/>
      <stop offset="1" stop-color="#67421b"/>
    </linearGradient>
    <linearGradient id="linear-gradient-5" x1="-72.403" y1="3.799" x2="-73.436" y2="3.846" gradientUnits="objectBoundingBox">
      <stop offset="0" stop-color="#f9e788"/>
      <stop offset="0.426" stop-color="#f9dc5c"/>
      <stop offset="1" stop-color="#fce78a"/>
    </linearGradient>
    <linearGradient id="linear-gradient-6" x1="0.115" y1="-4.848" x2="0.919" y2="-5.672" gradientUnits="objectBoundingBox">
      <stop offset="0" stop-color="#fdf5b2"/>
      <stop offset="1" stop-color="#f7e37b"/>
    </linearGradient>
    <linearGradient id="linear-gradient-8" x1="0.954" y1="3.435" x2="0.023" y2="4.039" xlink:href="#linear-gradient-2"/>
    <linearGradient id="linear-gradient-9" x1="-46.152" y1="5.806" x2="-47.398" y2="6.693" xlink:href="#linear-gradient-3"/>
    <linearGradient id="linear-gradient-10" x1="0.073" y1="5.245" x2="0.927" y2="4.456" xlink:href="#linear-gradient-4"/>
    <linearGradient id="linear-gradient-11" x1="-56.01" y1="7.899" x2="-57.043" y2="7.946" xlink:href="#linear-gradient-5"/>
    <linearGradient id="linear-gradient-12" x1="0.115" y1="7.46" x2="0.919" y2="6.635" xlink:href="#linear-gradient-6"/>
    <linearGradient id="linear-gradient-14" x1="0.954" y1="-2.62" x2="0.023" y2="-2.017" xlink:href="#linear-gradient-2"/>
    <linearGradient id="linear-gradient-15" x1="-4.18" y1="2.77" x2="-5.424" y2="3.657" xlink:href="#linear-gradient-3"/>
    <linearGradient id="linear-gradient-16" x1="0.073" y1="-2.258" x2="0.927" y2="-3.047" xlink:href="#linear-gradient-4"/>
    <linearGradient id="linear-gradient-17" x1="-5.309" y1="4.119" x2="-6.343" y2="4.167" xlink:href="#linear-gradient-5"/>
    <linearGradient id="linear-gradient-18" x1="0.122" y1="-3.886" x2="0.92" y2="-4.711" xlink:href="#linear-gradient-6"/>
    <linearGradient id="linear-gradient-19" x1="0.987" y1="4.467" x2="-0.004" y2="4.558" xlink:href="#linear-gradient-2"/>
    <linearGradient id="linear-gradient-20" x1="-1.579" y1="6.569" x2="-2.747" y2="7.568" xlink:href="#linear-gradient-3"/>
    <linearGradient id="linear-gradient-21" x1="0.02" y1="6.175" x2="0.987" y2="5.846" xlink:href="#linear-gradient-4"/>
    <linearGradient id="linear-gradient-22" x1="-2.146" y1="9.215" x2="-3.11" y2="9.27" xlink:href="#linear-gradient-5"/>
    <linearGradient id="linear-gradient-23" x1="0.037" y1="9.63" x2="0.983" y2="9.172" xlink:href="#linear-gradient-6"/>
    <linearGradient id="linear-gradient-24" x1="0.963" y1="2.423" x2="0.062" y2="1.762" gradientUnits="objectBoundingBox">
      <stop offset="0" stop-color="#347a78"/>
      <stop offset="0.229" stop-color="#72ffcc"/>
      <stop offset="0.469" stop-color="#fff"/>
      <stop offset="0.719" stop-color="#72ffcc"/>
      <stop offset="1" stop-color="#347a78"/>
    </linearGradient>
    <linearGradient id="linear-gradient-25" x1="-49.146" y1="7.614" x2="-50.393" y2="8.497" gradientUnits="objectBoundingBox">
      <stop offset="0" stop-color="#a3fedd"/>
      <stop offset="0.333" stop-color="#8cffd5"/>
      <stop offset="0.646" stop-color="#bbffe6"/>
    </linearGradient>
    <linearGradient id="linear-gradient-26" x1="0.006" y1="2.583" x2="0.995" y2="3.075" gradientUnits="objectBoundingBox">
      <stop offset="0" stop-color="#469c7d"/>
      <stop offset="1" stop-color="#347a78"/>
    </linearGradient>
    <linearGradient id="linear-gradient-27" x1="-59.707" y1="10.157" x2="-60.743" y2="10.204" gradientUnits="objectBoundingBox">
      <stop offset="0" stop-color="#45febb"/>
      <stop offset="0.426" stop-color="#14c484"/>
      <stop offset="1" stop-color="#75fbca"/>
    </linearGradient>
    <linearGradient id="linear-gradient-28" x1="1.003" y1="-5.044" x2="0.003" y2="-5.108" xlink:href="#linear-gradient-24"/>
    <linearGradient id="linear-gradient-29" x1="-37.959" y1="1.073" x2="-39.125" y2="2.073" xlink:href="#linear-gradient-25"/>
    <linearGradient id="linear-gradient-30" x1="0.01" y1="-5.977" x2="0.99" y2="-6.147" xlink:href="#linear-gradient-26"/>
    <linearGradient id="linear-gradient-31" x1="-45.756" y1="2.155" x2="-46.716" y2="2.21" xlink:href="#linear-gradient-27"/>
  </defs>
  <g id="组_858" data-name="组 858" clip-path="url(#clip-path)">
    <path id="路径_541" data-name="路径 541" d="M0,0H1440V120H0Z" fill="#fff"/>
    <path id="路径_542" data-name="路径 542" d="M0,0H1440V120H0Z" fill="#12202f"/>
    <path id="路径_543" data-name="路径 543" d="M0,120V40C32.6,62.2,36.1,80.9,142,74c259-17,492.6,26.2,544,46Z" fill="rgba(17,127,209,0.2)"/>
    <path id="路径_544" data-name="路径 544" d="M1440,0H614C824,49.7,891.8,26,996.3,31.9s134.6,22.5,217.5,28.4c66.3,4.7,178.4-17,226.2-28.4Z" fill="rgba(17,127,209,0.2)"/>
    <path id="路径_545" data-name="路径 545" d="M0,120V13C153,26.3,57,50.9,192,62.2c108,9.1,178.3,42.3,200,57.8Z" fill="rgba(17,127,209,0.2)"/>
    <g id="组_850" data-name="组 850">
      <path id="路径_546" data-name="路径 546" d="M1374,59.1l22.3,11.6L1381.6,99l-22.3-11.6Z" opacity="0.5" fill="url(#linear-gradient)"/>
      <path id="路径_547" data-name="路径 547" d="M1366.1,101c-6.2-3.4-9.3-9.5-7-13.7v-.1l1.2-2.2.5.3c3.1-2.3,8.5-2.1,13.5.6s8,7.2,7.8,11.1l.5.3-1.2,2.3h0C1379.1,103.8,1372.3,104.4,1366.1,101Z" fill-rule="evenodd" fill="url(#linear-gradient-2)"/>
      <path id="路径_548" data-name="路径 548" d="M1375.6,83.6c-6.2-3.4-13-2.7-15.3,1.4s.9,10.3,7,13.7c6.2,3.4,13,2.7,15.3-1.4S1381.8,86.9,1375.6,83.6Z" fill="url(#linear-gradient-3)"/>
      <path id="路径_549" data-name="路径 549" d="M1362.5,85.7c-1.8,3.3.9,8.3,6,11.1s10.8,2.4,12.6-.9-.9-8.3-6-11.1C1369.9,82,1364.3,82.4,1362.5,85.7Z" fill="url(#linear-gradient-4)"/>
      <path id="路径_550" data-name="路径 550" d="M1374.5,85.7c-5.1-2.8-10.8-2.5-12.5.8-1.8,3.2,1,8.2,6.1,11s10.8,2.5,12.5-.8C1382.4,93.4,1379.7,88.5,1374.5,85.7Z" fill="url(#linear-gradient-5)"/>
      <path id="路径_551" data-name="路径 551" d="M1377.3,93c-.2.7-.3,1.4-.5,2-.3-.2-.7-.3-1-.5a3.616,3.616,0,0,1-2.4,2.1h-.1c-.1-.6-.1-1.3-.2-1.9h.1a2.367,2.367,0,0,0,1.4-1.8v-.1c.1-.7.5-2.2-.6-2.5-.8-.3-1.1.8-1.4,1.8-.5,1.5-1.5,3.7-3.8,2.6a3.834,3.834,0,0,1-2.3-4.1,12.128,12.128,0,0,0-1.4-.5,11.63,11.63,0,0,0,.4-1.8c.4.2.9.3,1.3.5a4.367,4.367,0,0,1,2.2-2.6,10.16,10.16,0,0,1,1.4,1.9h-.1a3.074,3.074,0,0,0-1.9,2.1v.1c-.1.9-.3,2,.9,2.6.7.3,1.5-.9,1.6-1.6v-.1c.5-1.5,1-3.3,3-3.1.2,0,.3.1.5.2l.4.2a4.674,4.674,0,0,1,1.4,4.2,1.432,1.432,0,0,1,1.1.3Z" fill="#b9732f" opacity="0.94"/>
      <path id="路径_552" data-name="路径 552" d="M1377.1,92.6a11.7,11.7,0,0,1-.5,2c-.3-.2-.7-.3-1-.5a3.616,3.616,0,0,1-2.4,2.1h-.1c-.1-.6-.1-1.3-.2-1.9h.1a2.6,2.6,0,0,0,1.4-1.8v-.1c.1-.7.5-2.2-.6-2.5-.8-.3-1.1.8-1.4,1.8-.5,1.5-1.5,3.7-3.8,2.6a3.716,3.716,0,0,1-2.3-4.1,12.128,12.128,0,0,0-1.4-.5,11.63,11.63,0,0,0,.4-1.8c.4.2.9.3,1.3.5a4.367,4.367,0,0,1,2.2-2.6,10.16,10.16,0,0,1,1.4,1.9h-.1a3.074,3.074,0,0,0-1.9,2.1v.1c-.1.9-.3,2,.9,2.6.7.3,1.5-.9,1.6-1.6v-.1c.5-1.5,1-3.3,3-3.1.2,0,.3.1.5.2l.4.2a4.674,4.674,0,0,1,1.4,4.2,2.016,2.016,0,0,1,1.1.3Z" opacity="0.94" fill="url(#linear-gradient-6)"/>
    </g>
    <g id="组_851" data-name="组 851" opacity="0.5">
      <path id="路径_553" data-name="路径 553" d="M1051-4.9l22.3,11.6L1058.6,35l-22.3-11.6Z" opacity="0.5" fill="url(#linear-gradient)"/>
      <path id="路径_554" data-name="路径 554" d="M1043.1,37c-6.2-3.4-9.3-9.5-7-13.7v-.1l1.2-2.2.5.3c3.1-2.3,8.5-2.1,13.5.6s8,7.2,7.8,11.1l.5.3-1.2,2.3h0C1056.1,39.8,1049.3,40.4,1043.1,37Z" fill-rule="evenodd" fill="url(#linear-gradient-8)"/>
      <path id="路径_555" data-name="路径 555" d="M1052.6,19.6c-6.2-3.4-13-2.7-15.3,1.4s.9,10.3,7,13.7c6.2,3.4,13,2.7,15.3-1.4S1058.8,22.9,1052.6,19.6Z" fill="url(#linear-gradient-9)"/>
      <path id="路径_556" data-name="路径 556" d="M1039.5,21.7c-1.8,3.3.9,8.3,6,11.1s10.8,2.4,12.6-.9-.9-8.3-6-11.1C1046.9,18,1041.3,18.4,1039.5,21.7Z" fill="url(#linear-gradient-10)"/>
      <path id="路径_557" data-name="路径 557" d="M1051.5,21.7c-5.1-2.8-10.8-2.5-12.5.8-1.8,3.2,1,8.2,6.1,11s10.8,2.5,12.5-.8C1059.4,29.4,1056.7,24.5,1051.5,21.7Z" fill="url(#linear-gradient-11)"/>
      <path id="路径_558" data-name="路径 558" d="M1054.3,29c-.2.7-.3,1.4-.5,2-.3-.2-.7-.3-1-.5a3.616,3.616,0,0,1-2.4,2.1h-.1c-.1-.6-.1-1.3-.2-1.9h.1a2.367,2.367,0,0,0,1.4-1.8v-.1c.1-.7.5-2.2-.6-2.5-.8-.3-1.1.8-1.4,1.8-.5,1.5-1.5,3.7-3.8,2.6a3.834,3.834,0,0,1-2.3-4.1,12.128,12.128,0,0,0-1.4-.5,11.63,11.63,0,0,0,.4-1.8c.4.2.9.3,1.3.5a4.367,4.367,0,0,1,2.2-2.6,10.16,10.16,0,0,1,1.4,1.9h-.1a3.074,3.074,0,0,0-1.9,2.1v.1c-.1.9-.3,2,.9,2.6.7.3,1.5-.9,1.6-1.6v-.1c.5-1.5,1-3.3,3-3.1.2,0,.3.1.5.2l.4.2a4.674,4.674,0,0,1,1.4,4.2,1.432,1.432,0,0,1,1.1.3Z" fill="#b9732f" opacity="0.94"/>
      <path id="路径_559" data-name="路径 559" d="M1054.1,28.6a11.7,11.7,0,0,1-.5,2c-.3-.2-.7-.3-1-.5a3.616,3.616,0,0,1-2.4,2.1h-.1c-.1-.6-.1-1.3-.2-1.9h.1a2.6,2.6,0,0,0,1.4-1.8v-.1c.1-.7.5-2.2-.6-2.5-.8-.3-1.1.8-1.4,1.8-.5,1.5-1.5,3.7-3.8,2.6a3.716,3.716,0,0,1-2.3-4.1,12.128,12.128,0,0,0-1.4-.5,11.63,11.63,0,0,0,.4-1.8c.4.2.9.3,1.3.5a4.367,4.367,0,0,1,2.2-2.6,10.16,10.16,0,0,1,1.4,1.9h-.1a3.074,3.074,0,0,0-1.9,2.1v.1c-.1.9-.3,2,.9,2.6.7.3,1.5-.9,1.6-1.6v-.1c.5-1.5,1-3.3,3-3.1.2,0,.3.1.5.2l.4.2a4.674,4.674,0,0,1,1.4,4.2,2.015,2.015,0,0,1,1.1.3Z" opacity="0.94" fill="url(#linear-gradient-12)"/>
    </g>
    <g id="组_852" data-name="组 852">
      <path id="路径_560" data-name="路径 560" d="M52,54.1,74.3,65.7,59.6,94,37.3,82.5Z" opacity="0.5" fill="url(#linear-gradient)"/>
      <path id="路径_561" data-name="路径 561" d="M44.1,96c-6.2-3.4-9.3-9.5-7-13.7v-.1L38.3,80l.5.3c3.1-2.3,8.5-2.1,13.5.6s8,7.2,7.8,11.1l.5.3-1.2,2.3h0C57.1,98.8,50.3,99.4,44.1,96Z" fill-rule="evenodd" fill="url(#linear-gradient-14)"/>
      <path id="路径_562" data-name="路径 562" d="M53.6,78.6c-6.2-3.4-13-2.7-15.3,1.4-2.3,4.2.9,10.3,7,13.7s13,2.7,15.3-1.4C63,88.1,59.8,81.9,53.6,78.6Z" fill="url(#linear-gradient-15)"/>
      <path id="路径_563" data-name="路径 563" d="M40.5,80.7c-1.8,3.3.9,8.3,6,11.1s10.8,2.4,12.6-.9-.9-8.3-6-11.1C47.9,77,42.3,77.4,40.5,80.7Z" fill="url(#linear-gradient-16)"/>
      <path id="路径_564" data-name="路径 564" d="M52.5,80.7c-5.1-2.8-10.8-2.5-12.5.8-1.8,3.2,1,8.2,6.1,11s10.8,2.5,12.5-.8C60.4,88.4,57.7,83.5,52.5,80.7Z" fill="url(#linear-gradient-17)"/>
      <path id="路径_565" data-name="路径 565" d="M55.3,88a11.7,11.7,0,0,1-.5,2c-.3-.2-.7-.3-1-.5a3.616,3.616,0,0,1-2.4,2.1h-.1c-.1-.6-.1-1.3-.2-1.9h.1a2.6,2.6,0,0,0,1.4-1.8v-.1c.1-.7.5-2.2-.6-2.5-.8-.3-1.1.7-1.4,1.7-.5,1.5-1.5,3.7-3.8,2.6a3.716,3.716,0,0,1-2.3-4.1,12.129,12.129,0,0,0-1.4-.5,11.627,11.627,0,0,0,.4-1.8c.5.2.9.3,1.3.5A4.367,4.367,0,0,1,47,81.1,10.156,10.156,0,0,1,48.4,83c-.1.1,0,0-.1,0a3.073,3.073,0,0,0-1.9,2.1v.1c-.1.9-.3,2,.9,2.6.7.3,1.5-.9,1.6-1.6v-.1c.5-1.5,1-3.3,3-3.1.2,0,.3.1.5.2l.4.2a4.674,4.674,0,0,1,1.4,4.2A2.1,2.1,0,0,1,55.3,88Z" fill="#b9732f" opacity="0.94"/>
      <path id="路径_566" data-name="路径 566" d="M55.1,87.6a11.7,11.7,0,0,1-.5,2c-.3-.2-.7-.3-1-.5a3.616,3.616,0,0,1-2.4,2.1h-.1c-.1-.6-.1-1.3-.2-1.9H51a2.6,2.6,0,0,0,1.4-1.8v-.1c.1-.7.5-2.2-.6-2.5-.8-.3-1.1.8-1.5,1.8-.5,1.5-1.5,3.7-3.8,2.6a3.716,3.716,0,0,1-2.3-4.1,12.129,12.129,0,0,0-1.4-.5,11.627,11.627,0,0,0,.4-1.8c.5.2.9.3,1.3.5a4.367,4.367,0,0,1,2.2-2.6,10.156,10.156,0,0,1,1.4,1.9c-.1.1,0,0-.1,0a3.073,3.073,0,0,0-1.9,2.1v.1c-.1.9-.3,2,.9,2.6.7.3,1.5-.9,1.6-1.6v-.1c.5-1.5,1-3.3,3-3.1.2,0,.3.1.5.2l.4.2a4.674,4.674,0,0,1,1.4,4.2A2.133,2.133,0,0,1,55.1,87.6Z" opacity="0.94" fill="url(#linear-gradient-18)"/>
    </g>
    <g id="组_853" data-name="组 853" opacity="0.5">
      <path id="路径_567" data-name="路径 567" d="M102.2,42c-5.1-.4-9-3.6-8.7-7h0l.2-1.9h.4c1.4-2.4,5.1-4,9.2-3.6,4.1.3,7.5,2.5,8.5,5.1h.4l-.2,1.9h0C111.7,39.9,107.3,42.4,102.2,42Z" fill-rule="evenodd" fill="url(#linear-gradient-19)"/>
      <path id="路径_568" data-name="路径 568" d="M103.4,27.5c-5.1-.4-9.5,2-9.8,5.5s3.6,6.6,8.7,7,9.5-2,9.8-5.5S108.5,27.9,103.4,27.5Z" fill="url(#linear-gradient-20)"/>
      <path id="路径_569" data-name="路径 569" d="M95.2,32.8c-.2,2.7,3,5.2,7.3,5.6s7.9-1.6,8.1-4.3-3-5.2-7.3-5.6C99.1,28.1,95.4,30,95.2,32.8Z" fill="url(#linear-gradient-21)"/>
      <path id="路径_570" data-name="路径 570" d="M103.3,29.2c-4.3-.4-7.9,1.5-8.1,4.2s3.1,5.2,7.3,5.5c4.3.4,7.9-1.5,8.1-4.2S107.5,29.6,103.3,29.2Z" fill="url(#linear-gradient-22)"/>
      <path id="路径_571" data-name="路径 571" d="M107.3,33.2l.3,1.5h-.8a2.512,2.512,0,0,1-1,2.1h0c-.2-.4-.5-.8-.7-1.2v-.1a1.8,1.8,0,0,0,.4-1.6v-.1c-.2-.5-.3-1.6-1.2-1.5-.6.1-.5.8-.4,1.6.1,1.1.1,2.9-1.8,2.9a2.88,2.88,0,0,1-2.8-2.1,4.1,4.1,0,0,0-1.1.1c-.1-.5-.1-.9-.2-1.3.3,0,.7-.1,1-.1a3.1,3.1,0,0,1,.7-2.4c.2.1,1.5.8,1.5.8v.1a2.133,2.133,0,0,0-.6,2V34c.2.6.4,1.4,1.4,1.4.6,0,.7-1.1.6-1.6v-.1c-.1-1.2-.3-2.5,1.1-3,.1-.1.3,0,.4,0h.3a3.524,3.524,0,0,1,2.2,2.4C106.7,33.2,107,33.2,107.3,33.2Z" fill="#b9732f" opacity="0.94"/>
      <path id="路径_572" data-name="路径 572" d="M107,33.1l.3,1.5h-.8a2.512,2.512,0,0,1-1,2.1h0c-.2-.4-.5-.8-.7-1.2v-.1a1.8,1.8,0,0,0,.4-1.6v-.1c-.2-.5-.3-1.6-1.2-1.5-.6.1-.5.8-.4,1.6.1,1.1.1,2.9-1.8,2.9A2.88,2.88,0,0,1,99,34.6a4.1,4.1,0,0,0-1.1.1c-.1-.5-.1-.9-.2-1.3.3,0,.7-.1,1-.1a3.1,3.1,0,0,1,.7-2.4c.2.1,1.5.8,1.5.8v.1a2.133,2.133,0,0,0-.6,2v.1c.2.6.4,1.4,1.4,1.4.6,0,.7-1.1.6-1.6v-.1c-.1-1.2-.3-2.5,1.1-3,.1-.1.3,0,.4,0h.3a3.524,3.524,0,0,1,2.2,2.4C106.5,33,106.8,33.1,107,33.1Z" opacity="0.94" fill="url(#linear-gradient-23)"/>
    </g>
    <g id="组_855" data-name="组 855">
      <path id="路径_573" data-name="路径 573" d="M1316.5,53.7c-5.5,3.1-11.7,2.6-13.8-1.1,0-.1-.1-.1-.1-.2l-1.1-1.9.5-.3c-.2-3.4,2.4-7.5,6.8-10.1,4.4-2.5,9.3-2.7,12.2-.7l.5-.3,1.1,2h0C1324.8,45,1322.1,50.6,1316.5,53.7Z" fill-rule="evenodd" fill="url(#linear-gradient-24)"/>
      <path id="路径_574" data-name="路径 574" d="M1307.7,38.1c-5.5,3.1-8.3,8.7-6.2,12.4s8.3,4.2,13.8,1.1,8.3-8.7,6.2-12.4S1313.2,35,1307.7,38.1Z" fill="url(#linear-gradient-25)"/>
      <path id="路径_575" data-name="路径 575" d="M1303.1,49.2c1.7,3,6.8,3.2,11.3.6s7-7.1,5.3-10-6.8-3.2-11.3-.6C1303.8,41.7,1301.4,46.2,1303.1,49.2Z" fill="url(#linear-gradient-26)"/>
      <path id="路径_576" data-name="路径 576" d="M1308.8,39.9c-4.6,2.6-7,7.1-5.3,10,1.6,2.9,6.7,3.1,11.3.5s7-7.1,5.3-10C1318.5,37.6,1313.4,37.3,1308.8,39.9Z" fill="url(#linear-gradient-27)"/>
      <g id="组_854" data-name="组 854">
        <path id="路径_577" data-name="路径 577" d="M1309.6,49.6l5.4-3.4a.663.663,0,0,0,.2-.7c0-.1-.1-.1-.2-.2l-.5-.2-4.9-2.3h0a1.23,1.23,0,0,0-1.3.1,1.693,1.693,0,0,0-.7,1.2v4.5h0a1.422,1.422,0,0,0,.2.6,1.357,1.357,0,0,0,1.7.4c-.1.1,0,.1.1,0Z" fill="#f8f7f7" fill-rule="evenodd"/>
        <path id="路径_578" data-name="路径 578" d="M1311.4,43.2a1.282,1.282,0,0,1-.5-1.7,1.479,1.479,0,0,1,1.8-.6l4.1,2a1.282,1.282,0,0,1,.5,1.7,1.479,1.479,0,0,1-1.8.6Z" fill="#f8f7f7" fill-rule="evenodd"/>
      </g>
    </g>
    <g id="组_857" data-name="组 857">
      <path id="路径_579" data-name="路径 579" d="M983.6,112c-6.3.1-11.5-3.2-11.6-7.5v-.2l-.1-2.2h.5c1.4-3.2,5.7-5.5,10.8-5.6s9.5,2,11,5.1h.5l.1,2.3h0C995,108.2,989.9,111.8,983.6,112Z" fill-rule="evenodd" fill="url(#linear-gradient-28)"/>
      <path id="路径_580" data-name="路径 580" d="M983.2,94.1c-6.3.1-11.4,3.7-11.3,8s5.3,7.6,11.6,7.5,11.4-3.7,11.3-8S989.5,93.9,983.2,94.1Z" fill="url(#linear-gradient-29)"/>
      <path id="路径_581" data-name="路径 581" d="M973.9,101.6c.1,3.4,4.4,6,9.7,5.9s9.5-3,9.4-6.4-4.4-6-9.7-5.9c-5.3.2-9.5,3-9.4,6.4Z" fill="url(#linear-gradient-30)"/>
      <path id="路径_582" data-name="路径 582" d="M983.3,96.2c-5.3.1-9.5,2.9-9.4,6.3.1,3.3,4.4,5.9,9.7,5.8s9.5-2.9,9.4-6.3C992.9,98.7,988.6,96.1,983.3,96.2Z" fill="url(#linear-gradient-31)"/>
      <g id="组_856" data-name="组 856">
        <path id="路径_583" data-name="路径 583" d="M979.4,105.1l6.3-.4a.472.472,0,0,0,.5-.5c0-.1,0-.2-.1-.2l-.3-.4-3.2-4.3h0a1.147,1.147,0,0,0-1.2-.5,1.3,1.3,0,0,0-1.2.8l-2.1,4h0a.661.661,0,0,0-.1.6,1.229,1.229,0,0,0,1.3,1.1c-.1-.2,0-.2.1-.2Z" fill="#f8f7f7" fill-rule="evenodd"/>
        <path id="路径_584" data-name="路径 584" d="M984,100.3a1.188,1.188,0,0,1,.4-1.7,1.512,1.512,0,0,1,1.9.3l2.7,3.7a1.188,1.188,0,0,1-.4,1.7,1.512,1.512,0,0,1-1.9-.3Z" fill="#f8f7f7" fill-rule="evenodd"/>
      </g>
    </g>
  </g>
</svg>
